HIERARCHY
ROOT root
{
	OFFSET 0.000000 0.000000 0.000000
	CHANNELS 6 Xposition Yposition Zposition Zrotation Yrotation Xrotation
	JOINT lhip
	{
		OFFSET 0.058581 -0.082280 -0.017664
		CHANNELS 3 Zrotation Yrotation Xrotation
		JOINT lknee
		{
			OFFSET 0.043451 -0.386469 0.008037
			CHANNELS 3 Zrotation Yrotation Xrotation
			JOINT lankle
			{
				OFFSET -0.014790 -0.426874 -0.037428
				CHANNELS 3 Zrotation Yrotation Xrotation
				JOINT ltoe
				{
					OFFSET 0.041054 -0.060286 0.122042
					CHANNELS 3 Zrotation Yrotation Xrotation
					End Site
					{
						OFFSET 0.000000 0.000000 0.000000
					}
				}
			}
		}
	}
	JOINT rhip
	{
		OFFSET -0.060310 -0.090513 -0.013543
		CHANNELS 3 Zrotation Yrotation Xrotation
		JOINT rknee
		{
			OFFSET -0.043257 -0.383688 -0.004843
			CHANNELS 3 Zrotation Yrotation Xrotation
			JOINT rankle
			{
				OFFSET 0.019056 -0.420046 -0.034562
				CHANNELS 3 Zrotation Yrotation Xrotation
				JOINT rtoe
				{
					OFFSET -0.034840 -0.062106 0.130323
					CHANNELS 3 Zrotation Yrotation Xrotation
					End Site
					{
						OFFSET 0.000000 0.000000 0.000000
					}
				}
			}
		}
	}
	JOINT lowerback
	{
		OFFSET 0.004439 0.124404 -0.038385
		CHANNELS 3 Zrotation Yrotation Xrotation
		JOINT upperback
		{
			OFFSET 0.004488 0.137956 0.026820
			CHANNELS 3 Zrotation Yrotation Xrotation
			JOINT chest
			{
				OFFSET -0.002265 0.056032 0.002855
				CHANNELS 3 Zrotation Yrotation Xrotation
				JOINT lowerneck
				{
					OFFSET -0.013390 0.211636 -0.033468
					CHANNELS 3 Zrotation Yrotation Xrotation
					JOINT upperneck
					{
						OFFSET 0.010113 0.088937 0.050410
						CHANNELS 3 Zrotation Yrotation Xrotation
						End Site
						{
							OFFSET 0.000000 0.000000 0.000000
						}
					}
				}
				JOINT lclavicle
				{
					OFFSET 0.071702 0.114000 -0.018898
					CHANNELS 3 Zrotation Yrotation Xrotation
					JOINT lshoulder
					{
						OFFSET 0.122921 0.045205 -0.019046
						CHANNELS 3 Zrotation Yrotation Xrotation
						JOINT lelbow
						{
							OFFSET 0.255332 -0.015649 -0.022946
							CHANNELS 3 Zrotation Yrotation Xrotation
							JOINT lwrist
							{
								OFFSET 0.265709 0.012698 -0.007375
								CHANNELS 3 Zrotation Yrotation Xrotation
								End Site
								{
									OFFSET 0.000000 0.000000 0.000000
								}
							}
						}
					}
				}
				JOINT rclavicle
				{
					OFFSET -0.082954 0.112472 -0.023707
					CHANNELS 3 Zrotation Yrotation Xrotation
					JOINT rshoulder
					{
						OFFSET -0.113228 0.046853 -0.008472
						CHANNELS 3 Zrotation Yrotation Xrotation
						JOINT relbow
						{
							OFFSET -0.260127 -0.014369 -0.031269
							CHANNELS 3 Zrotation Yrotation Xrotation
							JOINT rwrist
							{
								OFFSET -0.269108 0.006794 -0.006027
								CHANNELS 3 Zrotation Yrotation Xrotation
								End Site
								{
									OFFSET 0.000000 0.000000 0.000000
								}
							}
						}
					}
				}
			}
		}
	}
}
MOTION
Frames: 7
Frame Time: 0.033333
-1.525828 0.218198 0.945759 89.693485 -4.224358 89.854919 -5.476693 -9.479930 -22.513097 -7.110391 3.578905 36.530401 16.599374 15.460506 -27.390397 0.000000 -0.000000 0.000000 -1.213557 -1.539185 5.649935 -2.610791 2.375116 87.440395 5.730935 -14.424348 18.232864 0.000000 -0.000000 0.000000 -5.390380 4.307214 19.130707 -0.106014 -3.689122 -1.055291 -0.923536 -1.096170 4.607382 -0.513603 -6.539326 -15.310081 2.784861 9.747482 -4.363939 -30.197899 0.910062 -0.394524 -50.712067 -7.158608 12.398294 164.518482 -72.068297 -151.044522 26.412442 -11.417724 -15.146791 24.042111 0.482110 -3.471271 50.375187 -4.895108 20.586780 -92.359586 79.478405 -81.016376 -3.320424 17.335813 7.888253 
-1.419147 0.216811 0.936854 90.983881 -3.970828 88.582926 -7.054473 -8.871558 -14.484117 -7.424979 1.257630 39.021069 16.177496 17.421001 -34.359988 0.000000 -0.000000 0.000000 -1.091131 0.889063 -5.647238 -2.907422 -0.121950 98.750320 5.809066 -15.075927 10.254511 0.000000 -0.000000 0.000000 -6.224575 2.356572 22.663108 0.740043 -3.463157 -1.297166 -0.953655 -1.661065 3.792030 -0.721374 -3.270256 -16.295275 2.443350 7.986706 -5.679481 -30.633570 -3.681363 -1.104264 -48.407204 -15.196892 12.918998 155.305255 -72.133095 -142.448406 27.803655 -12.877020 -13.453939 26.581125 -0.112132 -3.064170 50.105296 -7.818299 19.113098 -74.024436 75.057710 -61.113985 -7.158465 17.492311 9.443881 
-1.311179 0.215544 0.944551 93.629921 -2.335274 87.853156 -7.175501 -4.737789 -4.198424 -7.353160 -5.532519 36.442682 14.516060 17.570841 -36.060699 0.000000 -0.000000 0.000000 -0.104541 1.487767 -17.021081 -2.906139 -2.105351 101.289502 4.914852 -15.396326 5.964377 0.000000 -0.000000 0.000000 -5.615061 -1.564689 25.352418 1.373800 -3.278020 -2.940233 -0.297736 -3.051943 4.199265 -1.592614 -1.277676 -17.463358 1.529244 8.608334 -4.862406 -29.562507 -5.994214 -2.466159 -49.643999 -21.708758 12.697542 148.634826 -71.601966 -135.180028 26.046935 -12.443361 -11.060582 27.050349 -1.688962 -3.699740 51.070246 -10.443340 17.847517 -67.854330 73.348661 -54.772413 -4.650308 17.413374 10.741476 
-1.167257 0.213470 0.972832 98.069944 -0.104633 88.623804 -2.929460 0.035502 8.716141 -6.239694 -14.894109 27.455506 7.404060 12.239514 -27.790074 0.000000 -0.000000 0.000000 -0.662322 1.952817 -27.579150 -3.845223 -6.060625 91.867308 8.664549 -12.337709 0.948434 0.000000 -0.000000 0.000000 -4.582542 -7.984917 25.047524 2.429302 -3.443124 -2.873178 0.648900 -4.915001 3.347855 -2.749583 1.210435 -17.441553 0.233726 9.177504 -4.476322 -28.494137 -5.483800 -3.576511 -52.951376 -25.881052 13.652323 148.401771 -69.216807 -133.366223 26.224126 -11.975650 -12.851816 27.133497 -5.047509 -3.928673 50.510128 -13.211698 16.998163 -65.166977 76.188292 -51.165866 -4.981853 17.701586 10.091308 
-1.078940 0.210974 0.995663 100.179329 1.200609 90.137293 1.000552 0.784150 14.736193 -5.286530 -18.525632 20.583837 2.457692 8.691336 -17.005315 0.000000 -0.000000 0.000000 -1.580192 3.256303 -31.776206 -3.756850 -9.648399 80.760664 8.349125 -10.124804 2.198786 0.000000 -0.000000 0.000000 -3.453588 -11.516107 22.995677 2.930982 -3.405970 -2.192626 1.050494 -5.839172 2.412122 -3.439161 2.518798 -16.526642 0.040443 9.993234 -4.920368 -28.433280 -4.394170 -3.778078 -54.833898 -26.319109 15.117150 151.019035 -67.688185 -135.510679 26.752644 -11.425366 -15.137891 26.510898 -6.988709 -2.644700 50.633407 -14.181274 16.318207 -62.050774 78.179166 -47.209412 -7.992107 18.153032 7.826476 
-0.958971 0.207516 1.023471 100.621595 2.598452 92.503934 5.511832 2.081200 21.467572 -2.087795 -16.834912 9.842731 -6.513686 5.603122 2.894924 0.000000 -0.000000 0.000000 -2.541880 5.152718 -34.496467 -3.460765 -13.246672 61.484228 8.674462 -7.837526 0.684064 0.000000 -0.000000 0.000000 -1.621096 -14.600280 19.249167 2.984129 -2.579746 -0.515193 1.468061 -6.246682 0.402328 -3.698969 3.923675 -14.995263 -0.016242 10.867660 -5.760763 -28.053938 -2.155295 -3.165405 -57.854622 -25.545405 17.487210 156.465490 -65.676096 -138.745859 25.008850 -11.435356 -17.212683 24.774117 -9.784663 -0.268696 51.500420 -15.447956 14.851862 -54.705497 80.328125 -38.517834 -9.018379 19.195225 3.613931 
-0.838622 0.206652 1.039803 100.548466 2.254123 93.716351 6.193824 2.709557 28.254943 1.157844 -17.627468 1.332455 -6.629008 8.284542 17.843722 0.000000 -0.000000 0.000000 -3.438037 5.850838 -33.508010 -0.839398 -11.540240 39.102011 9.916812 -10.607687 -0.590163 0.000000 -0.000000 0.000000 -1.370583 -16.713093 17.561123 2.426173 -1.631060 -0.738362 1.800932 -6.501191 0.837589 -3.516641 2.971255 -17.382325 0.561013 13.427474 -4.831802 -27.790925 0.757059 -3.858670 -58.036343 -25.892728 18.720243 166.340782 -66.228292 -147.242189 28.422848 -10.991189 -17.490960 23.928144 -11.966699 -1.110637 50.859144 -16.685300 16.192802 -48.824509 81.627290 -33.673895 -7.537581 20.609083 4.453837 
